HIERARCHY
ROOT HipCenter
{
    OFFSET 0.0 0.0 -0.0
    CHANNELS 6 Xposition Yposition Zposition Zrotation Xrotation Yrotation
    JOINT Spine
    {
        OFFSET 0.0 33.98420715332031 0.0
        CHANNELS 3 Zrotation Xrotation Yrotation
        JOINT ShoulderCenter
        {
            OFFSET 0.0 24.870206832885742 0.0
            CHANNELS 3 Zrotation Xrotation Yrotation
            JOINT LeftShoulder
            {
                OFFSET 19.298145294189453 0.0 0.0
                CHANNELS 3 Zrotation Xrotation Yrotation
                JOINT LeftElbow
                {
                    OFFSET 27.623592376708984 0.0 0.0
                    CHANNELS 3 Zrotation Xrotation Yrotation
                    JOINT LeftWrist
                    {
                        OFFSET 25.585742950439453 0.0 0.0
                        CHANNELS 3 Zrotation Xrotation Yrotation
                        JOINT LeftHand
                        {
                            OFFSET 7.367735862731934 0.0 0.0
                            CHANNELS 3 Zrotation Xrotation Yrotation
                            End Site
                            {
                                OFFSET 2.947094440460205 0.0 0.0
                            }
                        }
                    }
                }
            }
            JOINT RightShoulder
            {
                OFFSET -19.298145294189453 0.0 0.0
                CHANNELS 3 Zrotation Xrotation Yrotation
                JOINT RightElbow
                {
                    OFFSET -27.623592376708984 0.0 0.0
                    CHANNELS 3 Zrotation Xrotation Yrotation
                    JOINT RightWrist
                    {
                        OFFSET -25.585742950439453 0.0 0.0
                        CHANNELS 3 Zrotation Xrotation Yrotation
                        JOINT RightHand
                        {
                            OFFSET -7.367735862731934 0.0 0.0
                            CHANNELS 3 Zrotation Xrotation Yrotation
                            End Site
                            {
                                OFFSET -2.947094440460205 0.0 0.0
                            }
                        }
                    }
                }
            }
            End Site
            {
                OFFSET 0.0 9.948084831237793 0.0
            }
        }
    }
    JOINT LeftHip
    {
        OFFSET 8.296052932739258 0.0 0.0
        CHANNELS 3 Zrotation Xrotation Yrotation
        JOINT LeftKnee
        {
            OFFSET 0.0 -41.35143280029297 0.0
            CHANNELS 3 Zrotation Xrotation Yrotation
            JOINT LeftAnkle
            {
                OFFSET 0.0 -35.24994659423828 0.0
                CHANNELS 3 Zrotation Xrotation Yrotation
                JOINT LeftFoot
                {
                    OFFSET 0.0 -10.508512496948242 0.0
                    CHANNELS 3 Zrotation Xrotation Yrotation
                    End Site
                    {
                        OFFSET 0.0 0.0 4.203405380249023
                    }
                }
            }
        }
    }
    JOINT RightHip
    {
        OFFSET -8.296052932739258 0.0 0.0
        CHANNELS 3 Zrotation Xrotation Yrotation
        JOINT RightKnee
        {
            OFFSET 0.0 -41.35143280029297 0.0
            CHANNELS 3 Zrotation Xrotation Yrotation
            JOINT RightAnkle
            {
                OFFSET 0.0 -35.24994659423828 0.0
                CHANNELS 3 Zrotation Xrotation Yrotation
                JOINT RightFoot
                {
                    OFFSET 0.0 -10.508512496948242 0.0
                    CHANNELS 3 Zrotation Xrotation Yrotation
                    End Site
                    {
                        OFFSET 0.0 0.0 4.203405380249023
                    }
                }
            }
        }
    }
}
MOTION
Frames: 9
Frame Time: 0.03333333333333333
43.520198822021484 0.3790000081062317 -260.3072814941406 8.609012388538314 8.933710889039498 129.62839708319282 1.216298900213116 -1.1653649121611676 0.0736120968784889 8.54321238256055e-08 3.3189368261630287e-07 -4.947920589242883 -78.94038669606901 -52.434417960815395 -3.9326949047639355 4.4403307130020373e-07 7.153670568809321e-08 19.224776098742712 179.99999465374302 -1.2084833135125044 -159.92556352966193 0.0 0.0 -3.1805546814635168e-15 63.5233395066227 -51.554219598858715 -2.4427858360180075 5.423835816678478e-06 5.8105307201031925e-06 -35.0895952663075 -4.648978670916163e-06 -63.542929065609854 -38.12658958812817 1.2722218725854067e-14 3.1805546814635164e-15 -3.1805546814635168e-15 -1.5031030812015433 10.283601344980607 32.85241849740233 2.985913784867717 2.6713918835309256 -0.15668560633007614 14.487369661520027 55.9921656810268 -14.939397417835217 0.0 0.0 0.0 -3.859336973031352 2.7074266535299993 -16.668872850009055 0.6174109322302762 -12.70210980189099 0.35471014695814984 -62.375711909198145 49.15831244953309 53.54747732152424 1.1034765745125397e-31 6.3611093629270335e-15 -1.987846675914698e-15
43.959999084472656 0.2750000059604645 -260.306396484375 9.172488284861362 8.813785374997751 129.57004819916023 1.5153135194461973 -0.9819093892536446 0.06079892548065986 -7.256193794285971e-07 -2.4872024253558465e-07 -5.196433819339662 -78.9529222703781 -51.675055890478866 -3.6088343416502924 -7.52461982370681e-06 4.858653147362959e-07 18.704114861404964 -179.9999967074241 0.3563637300618366 -162.95896360722625 -4.4139062980501586e-32 1.5902773407317584e-15 3.1805546814635168e-15 63.31742714137932 -50.58133424204466 -2.7616950716426993 -3.903374362245206e-06 -5.016033704985626e-07 -36.75602537230483 9.573701653615671e-06 -75.78753736963587 -32.67247024670826 -6.3611093629270335e-15 3.1805546814635168e-15 3.1805546814635168e-15 -0.38369964950740865 10.923649506868951 33.30869186651107 2.380414618648971 2.98530675631214 -0.18024118081297488 15.346519685777073 55.76091337921528 -15.716933287994257 -3.1805546814635168e-15 -6.3611093629270335e-15 -1.7655625192200634e-31 -1.926829852917984 2.5964929269658192 -16.997244953103348 -1.897100215006495 -13.019389922979618 0.17901862338347058 -59.87543070878468 49.00034336797773 51.58698105350997 -1.3241718894150476e-31 6.361109362927035e-15 2.3854160110976384e-15
43.983097076416016 0.23159998655319214 -260.5276184082031 9.110905291065212 8.882413221057663 129.62318912780856 1.4971118081730337 -1.127665255244561 0.06246306670427136 3.152382790972116e-07 1.8624144384692707e-07 -5.445112775813053 -78.9360887281238 -51.49079537790569 -3.2001488071875897 -2.134351395201883e-06 -3.3713124406180457e-07 18.312078499414675 179.99999791773485 3.6357785458836194 -168.28172784380078 0.0 0.0 -3.180554681463516e-15 63.204617867367325 -50.20899364258412 -2.7068137268283223 2.5130770466141612e-06 -3.5381315540121185e-06 -37.39050381221319 -2.489865885811307e-05 -78.84102244304361 -31.646169703555973 0.0 0.0 -4.770832022195275e-15 -0.47744706578233614 10.770067808223692 33.4360517946968 2.499698332751706 3.53243768292907 -0.18045128949208877 15.313807223606313 54.94371927038482 -15.092658899153776 3.180554681463516e-15 -6.361109362927033e-15 -3.180554681463516e-15 -1.8498782269202425 2.0997631576082796 -17.01842602236263 -2.4851786118836476 -12.219958584538695 0.04278130848771521 -59.51694804754519 48.11173662952349 51.44641950316567 0.0 0.0 -7.951386703658791e-16
44.660301208496094 0.19619999825954437 -260.6211853027344 9.591762622647423 8.855472728416542 129.6555818076425 1.5159980311784529 -1.2200507615835865 0.06241446437840707 -1.9258298321572372e-07 -3.4406921274907484e-07 -5.569156935314119 -78.02153504495323 -51.41930345046322 -2.6493811651233528 -2.113411821207868e-06 7.862938162533765e-07 18.980376260796014 179.99999779177773 53.99167383973492 -177.7730552271419 -6.361109362927033e-15 3.531125038440127e-31 -6.361109362927033e-15 62.89099941956072 -49.92361130913256 -3.2151323325495738 -2.038136698744311e-06 -5.6655372070557434e-06 -38.091255597823235 -1.8748629069215034e-05 -83.0593631725457 -32.19159506734926 -6.3611093629270335e-15 4.4139062980501586e-32 -7.951386703658792e-16 0.46115016263435904 11.73220151269387 33.21976124583963 1.725742724724085 3.575245788508894 -0.18840381264293707 14.69318471337321 54.543572017381834 -14.576863550874071 4.770832022195275e-15 6.620859447075238e-32 1.5902773407317584e-15 -0.5132478769531866 2.309079721194804 -17.171883020998614 -3.7549343777729134 -11.934525009361554 0.006335496953365644 -58.4563153339877 47.34938350377628 50.118367487621015 0.0 0.0 0.0
45.202301025390625 0.2989000082015991 -260.45050048828125 9.628373384015644 8.621707258098143 129.85885272655506 1.4164788483984951 -1.3691989451137578 0.0710970597343949 -2.6490224973898373e-07 1.1177461957213378e-07 -5.786750385721315 -78.00461878348746 -49.002069611496594 -2.2732783206025737 3.063546213620952e-06 4.3105636101576485e-07 18.935480340556857 2.3957758385866608e-06 31.367369955338877 6.483975631653 -2.3854160110976368e-15 -6.620859447075238e-32 3.180554681463516e-15 62.9402477887184 -49.960750781885466 -3.5789167109399753 4.1520648683003997e-07 5.792275427936627e-06 -38.471285500956206 -0.00041166224624542214 -89.46687949015458 -30.674096993881392 -6.3611093629270335e-15 -3.1805546814635168e-15 3.1805546814635168e-15 1.328561455438633 11.740598723183536 32.28533360130877 1.1893689806992045 4.106289188328822 -0.252011920202516 13.5285511915973 54.20119905108857 -13.955549719063221 0.0 6.361109362927035e-15 0.0 0.6201105424503072 2.2127683072742497 -17.07814181830894 -4.427007949312508 -11.899440989167552 0.09993691148203657 -57.612804377334214 46.79804241973804 48.45338501090977 -3.972515668245143e-31 -6.3611093629270335e-15 -7.156248033292914e-15
45.192100524902344 0.3046000003814697 -260.4425048828125 9.406374252421795 8.574298089180823 129.953955363266 1.5806559673508822 -0.9692080257765759 0.05532579981906569 -2.1799875143768235e-07 -1.0874494320569491e-07 -5.480891731008976 -78.72439186153062 -51.62414416614024 -3.3745874679715846 -2.8099914986577512e-06 -2.1913517689885203e-06 24.000678802213226 -179.99999937609252 63.7567607292466 -164.97314359455842 6.361109362927032e-15 -6.361109362927032e-15 -3.1805546814635156e-15 62.69667631527351 -50.7216290684992 -3.521594260322905 -9.293648290403906e-07 2.1585530058098093e-06 -38.85365709390746 -0.00011850448409397697 -88.41238164367687 -31.503247341401522 6.3611093629270335e-15 2.2069531490250793e-32 3.975693351829396e-16 1.1258171337760525 11.309840688883503 32.12218793722205 1.511795177890609 4.334991334489497 -0.2737629983146723 13.235703523808743 54.10402947560022 -13.77883614121504 0.0 0.0 0.0 0.6607186399189448 1.4834152447301971 -17.04737822444254 -4.9622145291537505 -11.08972744765429 0.05665916416302261 -56.82692145555808 46.61086501262957 47.7135782276173 -6.3611093629270335e-15 6.3611093629270335e-15 7.951386703658796e-16
45.20199966430664 0.340800017118454 -260.4892883300781 8.857716305242805 8.48022642980361 129.81630825806366 1.8028081820815844 -0.8164126018271719 0.047657875843276305 2.01864554031389e-07 4.532924673082515e-07 -5.087296301901369 -79.76486435209657 -48.82887403395156 -2.825281322215597 -1.439185529378644e-06 -8.4990449323509e-07 22.296257482562932 5.357095963271246e-06 60.627800209124864 15.20866603077862 0.0 0.0 6.361109362927033e-15 62.7453051134618 -52.70729739031133 -3.259334435662677 6.894147525843587e-06 -7.099841604062433e-07 -38.96760879837396 179.99994796263422 -88.79405382598098 144.05286293972733 6.361109362927033e-15 3.1805546814635164e-15 -3.975693351829398e-16 0.5545273609446851 10.692206179547588 31.780962164200105 1.8633863103473252 4.440973030300696 -0.2239431778992369 13.112970226787686 54.18100159325282 -13.084401927298703 0.0 0.0 1.5902773407317584e-15 -2.0195001326630715 -1.318953569136814 -16.636450929716748 -1.2012216380401073 -4.484248289189322 0.17422254616730967 -54.73746246643722 44.13056100446832 42.23916439994862 3.1805546814635168e-15 -8.827812596100317e-32 -3.1805546814635168e-15
45.26900100708008 0.43959999084472656 -260.4942932128906 8.069531845235923 8.484668391709569 129.98097604854507 1.838120470622415 -0.8531365339477875 0.05848035584168416 -5.4874001089290106e-08 2.2229582033171938e-06 -4.515527328380323 -80.69950895414692 -48.05322863864656 -2.861898661783124 -2.1394579569630243e-06 -1.6973599474148047e-06 28.149278121852266 179.99999646875304 52.145016923682 -150.4152532728276 0.0 0.0 -4.7708320221952736e-15 62.31965435992625 -52.92362378429304 -3.926829977090297 -7.371727570996732e-07 -1.6784971486882165e-06 -39.132831558852814 -179.9998928736651 -85.99730614331304 142.24832082716088 -6.361109362927033e-15 -3.3104297235376187e-31 5.9635400277440935e-15 0.058464805043772605 10.111674492502905 31.591899073380475 1.8650074494031974 4.441700643760175 -0.23343194318967525 4.846599822474645 51.30866798437136 -6.141285367463397 0.0 6.3611093629270335e-15 0.0 -1.4320370707636 -1.571749034243559 -16.591972394152002 -3.1052498103854695 -5.746966025262249 0.12649851621409092 -53.76579455368313 44.748810444921446 42.54477498022635 0.0 0.0 -1.5902773407317584e-15
45.339500427246094 0.6752000451087952 -260.58941650390625 7.190010000464873 8.487758814014592 129.8449064386266 1.993871687535356 -0.7713542759795967 0.0552438153880178 4.801555674266947e-07 -4.826698761983089e-07 -4.05438662561782 -81.15737511335992 -45.77885012801081 -1.6872540045463578 -4.133335301887453e-07 -1.377213676430943e-07 26.198583103667563 -5.610279480421101e-06 81.62785823909545 19.02911802809823 -3.531125038440127e-31 -6.3611093629270335e-15 -6.3611093629270335e-15 62.97952520700091 -51.79639698853978 -3.0097494613842715 -1.746078043503657e-06 -3.7264365120298286e-07 -38.98340670147587 -179.999994329039 -87.59276379168958 146.32030701055947 -1.6552148617688094e-31 3.1805546814635168e-15 5.9635400277440935e-15 -0.794798849756488 9.548337014738102 31.10696068279846 2.0446986911071865 4.247418273987409 -0.16808023538606992 6.074291290686409 52.35088244253643 -6.617723010797349 0.0 0.0 7.951386703658792e-16 -2.7359198158376543 -2.9840048073738257 -16.339421018297614 -1.8854058846156674 -3.56858660460058 0.09845121327455623 -52.84926183353732 43.810038804933185 40.80060332535741 -1.5448672043175555e-31 6.361109362927033e-15 2.7829853462805768e-15
